<svg xmlns="http://www.w3.org/2000/svg" viewBox="0 0 2789 2050"><defs><style>.cls-1{fill:#fff;}.cls-2,.cls-3,.cls-4{fill:none;stroke-miterlimit:10;}.cls-2{stroke:#000;stroke-width:110px;}.cls-3,.cls-4{stroke:#fff;}.cls-3{stroke-width:104.4px;}.cls-4{stroke-width:40px;}</style></defs><title>sr_crest_logo_svgArtboard 9 copy 8</title><g id="Layer_2" data-name="Layer 2"><rect class="cls-1" x="0.9" y="-4.8" width="2787" height="2050"/></g><g id="Layer_1" data-name="Layer 1"><circle class="cls-2" cx="775.18" cy="905.17" r="311.64"/><path class="cls-3" d="M775,486.41c231.72,0,419.56,187.7,419.56,419.24"/><path class="cls-2" d="M1085.84,936.5l-2.05,275.33c0,172.11,139.53,311.64,311.64,311.64s311.92-139.53,311.64-311.64c-.28-172.27-161.42-236.36-311.64-311.64C1238,823.69,1083.79,760.67,1083.79,588.56s139.53-311.64,311.64-311.64,311.64,139.53,311.64,311.64V901.07c0,172.11,139.53,311.64,311.64,311.64s311.64-139.53,311.64-311.64V552.51"/><path class="cls-3" d="M1194.56,905.66c0,231.54-187.84,419.24-419.56,419.24S355.45,1137.2,355.45,905.66,543.29,486.41,775,486.41"/><path class="cls-4" d="M1166.45,534.9c-16,75-20,152,130,231"/><path d="M220.48,1757.28h98.6v18.53H280.83v111H259.24v-111H220.48Z"/><path d="M423.63,1845.85v41.31l-20.74.17-.51-51.51a43.14,43.14,0,0,0-.94-10.88,29.77,29.77,0,0,0-2.89-7.91,17.2,17.2,0,0,0-4.42-5.18,16.47,16.47,0,0,0-5.7-2.89,20.31,20.31,0,0,0-6.46-.68,37.32,37.32,0,0,0-7.56,1.45,21.47,21.47,0,0,0-7.48,4.33,16,16,0,0,0-5.19,8.16q-1.36,4.76-1.36,24l-.34,41.14-19.72-.17V1757.62h20.23v47.09q.34-.51,1-1.44a27.13,27.13,0,0,1,3.23-3.23,37.79,37.79,0,0,1,5.44-4.08,32.76,32.76,0,0,1,7.73-3.23,35.25,35.25,0,0,1,10.12-1.45,33.43,33.43,0,0,1,19.81,6.21q8.75,6.21,12.49,19Q423.63,1827.83,423.63,1845.85Z"/><path d="M482.28,1790.94a48.54,48.54,0,0,1,18.44,2.63,34.52,34.52,0,0,1,12.67,7.57,36.57,36.57,0,0,1,7.48,11,49.65,49.65,0,0,1,3.83,12.24,74.61,74.61,0,0,1,.94,11.9q0,4.25-.34,8.33v.17H463.24v.94a21.15,21.15,0,0,0,.25,2.38l.51,3.57a25.77,25.77,0,0,0,1,4.17,35.29,35.29,0,0,0,1.79,4.51,31.7,31.7,0,0,0,2.55,4.33,16,16,0,0,0,3.57,3.74,20.62,20.62,0,0,0,4.85,2.64,19,19,0,0,0,6,1.27,25,25,0,0,0,8.58-.76,17.12,17.12,0,0,0,6.2-2.89,34,34,0,0,0,3.83-3.57,14.89,14.89,0,0,0,2.29-3.15l.51-1.36,18.87,5.27q-.34.85-1.1,2.38a38.77,38.77,0,0,1-3.91,5.44,40.49,40.49,0,0,1-7.06,6.88,40,40,0,0,1-11,5.44,47.16,47.16,0,0,1-15.47,2.46q-27.2,0-38.08-22.78a52.24,52.24,0,0,1-4.5-13.85,77.41,77.41,0,0,1-1.27-15.9,54,54,0,0,1,2.81-16.06,52.92,52.92,0,0,1,7.14-14.2,34,34,0,0,1,12.5-10.37A42.66,42.66,0,0,1,482.28,1790.94Zm-19,38.93h41.14q0-.85-.08-2.46a31.75,31.75,0,0,0-1.27-5.78,30.43,30.43,0,0,0-3.15-7.39,18.36,18.36,0,0,0-6.21-5.87,18.66,18.66,0,0,0-10-2.63,17.73,17.73,0,0,0-9.35,2.46,16.91,16.91,0,0,0-6.12,6,39.61,39.61,0,0,0-3.23,7.14,25.09,25.09,0,0,0-1.36,6.12Z"/><path d="M651.77,1755.58q29.75,0,46.92,18.36t17.17,48.45q0,30.09-17.68,48.36T651.77,1889q-30.09,0-47.17-17.08t-17.08-49.55a79.79,79.79,0,0,1,5-29.07,55.9,55.9,0,0,1,13.77-21.08,59.64,59.64,0,0,1,20.32-12.41A72.42,72.42,0,0,1,651.77,1755.58Zm0,116.28a39.58,39.58,0,0,0,21.5-6,42.32,42.32,0,0,0,15.3-17.42q5.69-11.39,5.69-26.18,0-21.76-12.15-35.62t-30.35-13.86a39.57,39.57,0,0,0-30.6,13.52q-12.24,13.51-12.24,36.46,0,23.63,11.65,36.38T651.77,1871.86Z"/><path d="M777.22,1791.11a37.4,37.4,0,0,1,10.37.42,33.46,33.46,0,0,1,20,12.75q4,5.36,6.63,14.71a79.89,79.89,0,0,1,2.63,21.59,76.9,76.9,0,0,1-2,18.19,40.14,40.14,0,0,1-12.49,21.67,26.58,26.58,0,0,1-8.5,5.18,50.2,50.2,0,0,1-8.33,2.38,33.5,33.5,0,0,1-7.48.51,34.88,34.88,0,0,1-9.27-1.53,28.4,28.4,0,0,1-7.06-3.14,37.15,37.15,0,0,1-4.67-3.57,36.11,36.11,0,0,1-3-3l-.85-1.19v45.39H733.53V1792.64h19.72v11.56a6.49,6.49,0,0,0,.85-1.19,21.88,21.88,0,0,1,2.55-3A25.86,25.86,0,0,1,768,1793,35,35,0,0,1,777.22,1791.11Zm-5.78,79q12.24,2.89,18.87-5.35t6.63-23.21a67.06,67.06,0,0,0-1.36-14.11,35.73,35.73,0,0,0-4.25-11,16.16,16.16,0,0,0-8-6.8,20.71,20.71,0,0,0-11.9-.68q-17.85,3.57-17.85,32.13,0,12.75,5.1,20.06T771.45,1870.16Z"/><path d="M872.42,1790.94a48.54,48.54,0,0,1,18.44,2.63,34.52,34.52,0,0,1,12.67,7.57,36.57,36.57,0,0,1,7.48,11,49.65,49.65,0,0,1,3.83,12.24,74.61,74.61,0,0,1,.94,11.9q0,4.25-.34,8.33v.17H853.38v.94a21.15,21.15,0,0,0,.25,2.38l.51,3.57a25.77,25.77,0,0,0,1,4.17,35.29,35.29,0,0,0,1.79,4.51,31.7,31.7,0,0,0,2.55,4.33,16,16,0,0,0,3.57,3.74,20.62,20.62,0,0,0,4.85,2.64,19,19,0,0,0,6,1.27,25,25,0,0,0,8.58-.76,17.12,17.12,0,0,0,6.2-2.89,34,34,0,0,0,3.83-3.57,14.89,14.89,0,0,0,2.29-3.15l.51-1.36,18.87,5.27q-.34.85-1.1,2.38a38.77,38.77,0,0,1-3.91,5.44,40.49,40.49,0,0,1-7.06,6.88,40,40,0,0,1-11,5.44,47.16,47.16,0,0,1-15.47,2.46q-27.2,0-38.08-22.78a52.24,52.24,0,0,1-4.5-13.85,77.41,77.41,0,0,1-1.27-15.9,54,54,0,0,1,2.81-16.06,52.92,52.92,0,0,1,7.14-14.2,34,34,0,0,1,12.5-10.37A42.66,42.66,0,0,1,872.42,1790.94Zm-19,38.93h41.14q0-.85-.08-2.46a31.75,31.75,0,0,0-1.27-5.78,30.43,30.43,0,0,0-3.15-7.39,18.36,18.36,0,0,0-6.21-5.87,18.66,18.66,0,0,0-10-2.63,17.73,17.73,0,0,0-9.35,2.46,16.91,16.91,0,0,0-6.12,6,39.61,39.61,0,0,0-3.23,7.14,25.09,25.09,0,0,0-1.36,6.12Z"/><path d="M980.71,1790.77q18.19,0,25.58,11.39t7.4,38.25V1887H993.63l-.34-51.85q0-5.61-.34-9.18a52.39,52.39,0,0,0-1.27-7.39,12.16,12.16,0,0,0-7.9-9.44,20.16,20.16,0,0,0-7.82-1.36,21.39,21.39,0,0,0-8.07,1.62,24.25,24.25,0,0,0-7.4,4.76,18.49,18.49,0,0,0-4.93,7.39q-1,3.06-1.19,18.19L954,1887H934.3l-.17-94.52h20.06l.17,12.07a4.94,4.94,0,0,1,.85-1.61,34.06,34.06,0,0,1,3-3.23,33.41,33.41,0,0,1,5.1-4.17,29.14,29.14,0,0,1,7.48-3.32A33.57,33.57,0,0,1,980.71,1790.77Z"/><path d="M1178.76,1851.8a29,29,0,0,1-3.74,17.08,32,32,0,0,1-12.07,11.9,61.69,61.69,0,0,1-17.42,6.46,70.88,70.88,0,0,1-19.46,1.53,68.43,68.43,0,0,1-18.62-3.74,39.23,39.23,0,0,1-14.54-8.58,36.49,36.49,0,0,1-11-20.57l20.4-3.23a12.2,12.2,0,0,1,.34,1.36,14,14,0,0,0,1.53,3.23,20.31,20.31,0,0,0,3.31,4.33,23.16,23.16,0,0,0,6.12,4,37.58,37.58,0,0,0,9.44,3.06,51.31,51.31,0,0,0,15.47.34,26.25,26.25,0,0,0,10.88-3.91,19.6,19.6,0,0,0,6.29-6.54,13.11,13.11,0,0,0,1.7-7.65,12.7,12.7,0,0,0-3.06-7.22,26.23,26.23,0,0,0-6.71-5.27,57.68,57.68,0,0,0-6.72-3.4,91.48,91.48,0,0,0-8.84-2.72q-6.29-1.7-7.14-2-6.8-2-11.47-3.82a82.62,82.62,0,0,1-9.18-4.17,49.27,49.27,0,0,1-8.42-5.61,29.91,29.91,0,0,1-7.4-8.25,25.22,25.22,0,0,1-3.48-9.52,40.21,40.21,0,0,1-.17-9.78,34,34,0,0,1,2.21-9.18,40.52,40.52,0,0,1,4-7.65,19.56,19.56,0,0,1,5-5.27,40.17,40.17,0,0,1,18.27-9.18,67,67,0,0,1,20.06-1.87,51.43,51.43,0,0,1,15.39,3.23,1.36,1.36,0,0,1,.51.17q23,8.67,27,32.64l-22.1,2.72a19.64,19.64,0,0,0-4.93-13.09,19.94,19.94,0,0,0-9.77-6,37.24,37.24,0,0,0-12.92-1.62,34.65,34.65,0,0,0-11.48,2.38q-7.31,3.06-10,9.52t2,13.94a16.84,16.84,0,0,0,6.29,5,65.9,65.9,0,0,0,8.25,3.66q3.83,1.36,12.07,3.91t12.67,4.08a90.5,90.5,0,0,1,11.47,4.93,52.14,52.14,0,0,1,9.52,6.54,27.42,27.42,0,0,1,7.31,10A41.16,41.16,0,0,1,1178.76,1851.8Z"/><path d="M1242.33,1790.94q22.1,0,33.83,13.09t11.9,35.53a64.64,64.64,0,0,1-1.62,14.62,49.25,49.25,0,0,1-5.19,13.26,43.63,43.63,0,0,1-8.75,11,37.8,37.8,0,0,1-12.83,7.4,51.06,51.06,0,0,1-17.17,2.72q-22.1,0-33.83-13.26t-11.73-34.34q0-15.64,4.85-26.69a36.58,36.58,0,0,1,15.13-17.17Q1227.2,1790.94,1242.33,1790.94Zm.17,81.26q12.07-.17,18.19-9.18t6.12-26.18a44.55,44.55,0,0,0-1.87-13.51,24,24,0,0,0-5.27-9.43,23.48,23.48,0,0,0-7.73-5.44,24,24,0,0,0-9.6-1.87q-10.2,0-17.25,8.25t-7.06,22q.17,17.51,6.38,26.44T1242.5,1872.2Z"/><path d="M1386,1792.81v94.35h-20.06v-10.54L1365,1878a20.69,20.69,0,0,1-3,2.89,34.07,34.07,0,0,1-5.19,3.66,32.16,32.16,0,0,1-7.48,2.89,37,37,0,0,1-9.77,1.28q-12.41,0-19.63-5.1t-10.37-15.72q-3.15-10.62-3.15-28.81v-46.24h20.06l.51,51.68q0,5.44.26,9.09a38.11,38.11,0,0,0,1.27,7.4,15.29,15.29,0,0,0,2.8,5.87,12.86,12.86,0,0,0,5.1,3.48,20.75,20.75,0,0,0,7.91,1.36,22,22,0,0,0,7.9-1.53,23.21,23.21,0,0,0,7.48-4.76,18.76,18.76,0,0,0,5-7.48q1-2.89,1.19-18l.17-47.09Z"/><path d="M1451.94,1790.77q2.38,0,4.59.17a33.56,33.56,0,0,1,3.91.51,32.05,32.05,0,0,1,3.31.85q1.61.51,2.81,1c.79.34,1.44.65,2,.93s.93.51,1.27.68.45.25.34.25q-1.7,2.72-5.27,8.5t-5.44,8.67q-3.23-3.74-11.56-3.74a17,17,0,0,0-13.6,6.21,28.12,28.12,0,0,0-6.46,14.54,35.87,35.87,0,0,0-.42,5.61q-.09,3.91.08,7v3.23l-.34,41.65-19.72-.17-.17-94.18h20.06v13.09q.34-.68.85-1.62a25.07,25.07,0,0,1,2.55-3.32,30.48,30.48,0,0,1,4.59-4.33,26.35,26.35,0,0,1,7.06-3.57A35.35,35.35,0,0,1,1451.94,1790.77Z"/><path d="M1542.89,1858.94l19.55,4.59q-.34,1-1,2.63a48.64,48.64,0,0,1-3.49,6,35.78,35.78,0,0,1-6.63,7.65,36.67,36.67,0,0,1-11,6,44.83,44.83,0,0,1-15.9,2.72,50,50,0,0,1-17.85-3,37.38,37.38,0,0,1-13.69-9,39.66,39.66,0,0,1-9-15.81,74.13,74.13,0,0,1-3.15-22.7q0-22.61,11.65-34.85t32-12.24a45.79,45.79,0,0,1,11.3,1.36,35.28,35.28,0,0,1,9,3.48,44.9,44.9,0,0,1,6.63,4.67,26.65,26.65,0,0,1,4.76,5.19q1.78,2.64,3.06,4.76a22.86,22.86,0,0,1,1.78,3.49l.51,1.36-19.55,5.1q-.17-.51-.42-1.45a16.58,16.58,0,0,0-1.7-3.32,22.64,22.64,0,0,0-3.31-4.25,17.2,17.2,0,0,0-5.52-3.4,20.71,20.71,0,0,0-8.08-1.53q-10.71,0-16.23,8.58t-5.86,23.38q0,16.49,5.78,25.42t16,8.92a26.23,26.23,0,0,0,8.67-1.36,16.41,16.41,0,0,0,6-3.4,24.9,24.9,0,0,0,3.48-4.08,15.65,15.65,0,0,0,1.87-3.57Z"/><path d="M1617.52,1790.94a48.54,48.54,0,0,1,18.44,2.63,34.52,34.52,0,0,1,12.67,7.57,36.57,36.57,0,0,1,7.48,11,49.65,49.65,0,0,1,3.83,12.24,74.61,74.61,0,0,1,.94,11.9q0,4.25-.34,8.33v.17h-62.05v.94a21.15,21.15,0,0,0,.25,2.38l.51,3.57a25.77,25.77,0,0,0,1,4.17,35.29,35.29,0,0,0,1.79,4.51,31.7,31.7,0,0,0,2.55,4.33,16,16,0,0,0,3.57,3.74,20.62,20.62,0,0,0,4.85,2.64,19,19,0,0,0,6,1.27,25,25,0,0,0,8.58-.76,17.12,17.12,0,0,0,6.2-2.89,34,34,0,0,0,3.83-3.57A14.89,14.89,0,0,0,1640,1862l.51-1.36,18.87,5.27q-.34.85-1.1,2.38a38.77,38.77,0,0,1-3.91,5.44,40.49,40.49,0,0,1-7.06,6.88,40,40,0,0,1-11,5.44,47.16,47.16,0,0,1-15.47,2.46q-27.2,0-38.08-22.78a52.24,52.24,0,0,1-4.5-13.85,77.41,77.41,0,0,1-1.27-15.9,54,54,0,0,1,2.81-16.06,52.92,52.92,0,0,1,7.14-14.2,34,34,0,0,1,12.5-10.37A42.66,42.66,0,0,1,1617.52,1790.94Zm-19,38.93h41.14q0-.85-.08-2.46a31.75,31.75,0,0,0-1.27-5.78,30.43,30.43,0,0,0-3.15-7.39,18.36,18.36,0,0,0-6.21-5.87,18.66,18.66,0,0,0-10-2.63,17.73,17.73,0,0,0-9.35,2.46,16.91,16.91,0,0,0-6.12,6,39.61,39.61,0,0,0-3.23,7.14,25.09,25.09,0,0,0-1.36,6.12Z"/><path d="M1814,1880.36a30.58,30.58,0,0,1-6.72,3.66,51.76,51.76,0,0,1-7.31,2.29q-3.66.85-7,1.36a53,53,0,0,1-6.71.6q-3.4.08-5.53.08t-6.71-.34a47.35,47.35,0,0,1-14-2.12,53.67,53.67,0,0,1-13.43-6.37,38.61,38.61,0,0,1-11.3-11.56,42.89,42.89,0,0,1-6.29-16.83,137.41,137.41,0,0,1-1.7-24.82l-1.19-69h22.44l.51,54.74v8.5q.51,24.65,2.89,31.45,2.89,8.5,9.44,12.67T1780,1869q17.17.17,24.22-7.31t7.23-26.69l.68-77.69h21.59l-.85,78q0,5.61-.08,8.58t-.59,7.82a34.06,34.06,0,0,1-1.7,8.08,62,62,0,0,1-3.23,7.14,28,28,0,0,1-5.35,7.14A55,55,0,0,1,1814,1880.36Z"/><path d="M1901.41,1790.77q18.19,0,25.58,11.39t7.4,38.25V1887h-20.06l-.34-51.85q0-5.61-.34-9.18a52.39,52.39,0,0,0-1.27-7.39,12.16,12.16,0,0,0-7.9-9.44,20.16,20.16,0,0,0-7.82-1.36,21.39,21.39,0,0,0-8.07,1.62,24.25,24.25,0,0,0-7.4,4.76,18.49,18.49,0,0,0-4.93,7.39q-1,3.06-1.19,18.19l-.34,47.26H1855l-.17-94.52h20.06l.17,12.07a4.94,4.94,0,0,1,.85-1.61,34.06,34.06,0,0,1,3-3.23,33.41,33.41,0,0,1,5.1-4.17,29.14,29.14,0,0,1,7.48-3.32A33.57,33.57,0,0,1,1901.41,1790.77Z"/><path d="M1977.57,1777.34h-20.23v-20.23h20.23Zm-20.23,109.48v-94.35h20.23l-.51,94.35Z"/><path d="M2062.06,1792.64h21.42L2047.1,1887h-15.47l-36.55-94.35h21.59l22.78,66.81Z"/><path d="M2137,1790.94a48.54,48.54,0,0,1,18.45,2.63,34.52,34.52,0,0,1,12.67,7.57,36.57,36.57,0,0,1,7.48,11,49.65,49.65,0,0,1,3.83,12.24,74.56,74.56,0,0,1,.94,11.9q0,4.25-.34,8.33v.17H2118v.94a21.15,21.15,0,0,0,.25,2.38l.51,3.57a25.81,25.81,0,0,0,1,4.17,35.36,35.36,0,0,0,1.79,4.51,31.75,31.75,0,0,0,2.55,4.33,16,16,0,0,0,3.57,3.74,20.61,20.61,0,0,0,4.84,2.64,19,19,0,0,0,6,1.27,25,25,0,0,0,8.58-.76,17.12,17.12,0,0,0,6.21-2.89,34.06,34.06,0,0,0,3.83-3.57,14.91,14.91,0,0,0,2.29-3.15l.51-1.36,18.87,5.27c-.23.57-.59,1.36-1.11,2.38a38.75,38.75,0,0,1-3.91,5.44,40.47,40.47,0,0,1-7.06,6.88,40,40,0,0,1-11,5.44,47.15,47.15,0,0,1-15.47,2.46q-27.2,0-38.08-22.78a52.22,52.22,0,0,1-4.5-13.85,77.37,77.37,0,0,1-1.28-15.9,54,54,0,0,1,2.81-16.06,52.9,52.9,0,0,1,7.14-14.2,34,34,0,0,1,12.5-10.37A42.65,42.65,0,0,1,2137,1790.94Zm-19,38.93h41.14q0-.85-.08-2.46a31.72,31.72,0,0,0-1.28-5.78,30.43,30.43,0,0,0-3.14-7.39,18.37,18.37,0,0,0-6.21-5.87,18.66,18.66,0,0,0-10-2.63,17.73,17.73,0,0,0-9.35,2.46,16.9,16.9,0,0,0-6.12,6,39.61,39.61,0,0,0-3.23,7.14,25.1,25.1,0,0,0-1.36,6.12Z"/><path d="M2243.45,1790.77q2.38,0,4.59.17a33.54,33.54,0,0,1,3.91.51,32.06,32.06,0,0,1,3.32.85q1.61.51,2.8,1c.79.34,1.45.65,2,.93s.93.51,1.27.68.45.25.34.25q-1.7,2.72-5.27,8.5t-5.44,8.67q-3.23-3.74-11.56-3.74a17,17,0,0,0-13.6,6.21,28.11,28.11,0,0,0-6.46,14.54,36,36,0,0,0-.43,5.61q-.09,3.91.08,7v3.23l-.34,41.65-19.72-.17-.17-94.18h20.06v13.09q.34-.68.85-1.62a25,25,0,0,1,2.55-3.32,30.48,30.48,0,0,1,4.59-4.33,26.35,26.35,0,0,1,7.05-3.57A35.35,35.35,0,0,1,2243.45,1790.77Z"/><path d="M2329,1833.44q12.58,2.89,18.87,10.88t5.1,19.38a23.94,23.94,0,0,1-3.91,11,25.64,25.64,0,0,1-8.25,7.74,41.31,41.31,0,0,1-11.14,4.5,53.81,53.81,0,0,1-13.09,1.53,67.13,67.13,0,0,1-13.51-1.28,41.09,41.09,0,0,1-10.37-3.4,47.42,47.42,0,0,1-7.57-4.76,25.56,25.56,0,0,1-5.27-5.27,46.29,46.29,0,0,1-3.06-4.84,30.4,30.4,0,0,1-1.7-3.57l-.34-1.36,20.4-4.42c.11.34.28.82.51,1.45a17.05,17.05,0,0,0,1.87,3.14,16.67,16.67,0,0,0,3.66,3.83,21.79,21.79,0,0,0,6.21,3,28.9,28.9,0,0,0,9.18,1.36,24.27,24.27,0,0,0,11.13-2.72,9.9,9.9,0,0,0,5.36-7.82,8.14,8.14,0,0,0-1.19-5.87,12.1,12.1,0,0,0-5-4.25,41.26,41.26,0,0,0-6.54-2.55,65.42,65.42,0,0,0-7.31-1.61q-20.74-3.23-27.37-9.69a21,21,0,0,1-4.93-7.48,32.92,32.92,0,0,1-2.29-9.86,22.92,22.92,0,0,1,1.7-10.54,29.72,29.72,0,0,1,6.21-9.52q4.08-4.25,11.9-6.88a57,57,0,0,1,18.19-2.63q30.26,0,37.57,24l-18.7,5.61q-.17-.51-.42-1.45a21.72,21.72,0,0,0-1.53-3.4,16.45,16.45,0,0,0-3.23-4.34,18,18,0,0,0-5.87-3.4,22,22,0,0,0-8.84-1.36q-9.52,0-14.11,4.76t-1.53,11.56a8.14,8.14,0,0,0,2.64,3.4,16.73,16.73,0,0,0,4.84,2.38,53.89,53.89,0,0,0,5.87,1.61q2.8.6,7.65,1.53Z"/><path d="M2396.1,1777.34h-20.23v-20.23h20.23Zm-20.23,109.48v-94.35h20.23l-.51,94.35Z"/><path d="M2446.25,1842.62q0,19.89.68,22.61.85,3.57,5.53,3.91t12.67-2V1887a85.36,85.36,0,0,1-14.11,1.36,72.64,72.64,0,0,1-10.2-.6,13.37,13.37,0,0,1-6.88-3,29.58,29.58,0,0,1-4.25-4.25q-1.45-1.87-2.21-6.29a53.57,53.57,0,0,1-.85-7.14q-.09-2.72-.26-8.5v-50.49h-11.9v-15.3h11.9l.34-35.53h19.72l-.17,35.53,17.34-.17v15.47l-17.34.17Z"/><path d="M2546.21,1792.81h22.1l-36.38,97.41a54.42,54.42,0,0,1-9.77,16.74q-6,6.89-12,9.78a64.66,64.66,0,0,1-11.3,4.33,34.93,34.93,0,0,1-8.58,1.45h-3.4l1.87-20.23q.85,0,2.29-.08a38.7,38.7,0,0,0,5.19-.93,24,24,0,0,0,6.8-2.63,24.66,24.66,0,0,0,6.29-5.7,23.4,23.4,0,0,0,4.59-9.35L2477,1792.81h21.59l25,64.43Z"/></g></svg>