<svg xmlns="http://www.w3.org/2000/svg" viewBox="0 0 2263 1652"><defs><style>.cls-1{fill:#fff;}.cls-2,.cls-3,.cls-4{fill:none;stroke-miterlimit:10;}.cls-2{stroke:#000;stroke-width:110px;}.cls-3,.cls-4{stroke:#fff;}.cls-3{stroke-width:104.4px;}.cls-4{stroke-width:40px;}</style></defs><title>sr_crest_logo_svgArtboard 9 copy 4</title><g id="Layer_2" data-name="Layer 2"><rect class="cls-1" x="-0.5" y="5" width="2264" height="1642"/></g><g id="Layer_1" data-name="Layer 1"><circle class="cls-2" cx="513.28" cy="830.97" r="311.64"/><path class="cls-3" d="M513.11,412.21c231.72,0,419.56,187.7,419.56,419.24"/><path class="cls-2" d="M823.95,862.3l-2.05,275.33c0,172.11,139.53,311.64,311.64,311.64s311.92-139.53,311.64-311.64c-.28-172.27-161.42-236.36-311.64-311.64C976.09,749.49,821.9,686.47,821.9,514.36s139.53-311.64,311.64-311.64,311.64,139.53,311.64,311.64V826.87c0,172.11,139.53,311.64,311.64,311.64S2068.45,999,2068.45,826.87V478.31"/><path class="cls-3" d="M932.66,831.46c0,231.54-187.84,419.24-419.56,419.24S93.55,1063,93.55,831.46,281.39,412.21,513.11,412.21"/><path class="cls-4" d="M904.55,460.7c-16,75-20,152,130,231"/></g></svg>